<svg width="140" height="38" viewBox="0 0 140 38" fill="none" xmlns="http://www.w3.org/2000/svg">
<path d="M61.5016 14.8878H56.1656L56.7243 13.3415C56.9861 12.6189 57.0818 12.1641 57.0214 11.962C56.9609 11.7599 56.7646 11.6638 56.4475 11.6638C56.1001 11.6638 55.7931 11.7952 55.5162 12.063C55.2444 12.3309 55.0078 12.7301 54.8114 13.2758C54.5597 13.9732 54.4691 14.4936 54.5396 14.8474C54.6 15.2011 54.9876 15.6255 55.7024 16.1208C57.7412 17.5508 58.9242 18.7282 59.2564 19.6479C59.5887 20.5676 59.3823 22.0482 58.6423 24.0896C58.1037 25.5753 57.5247 26.6668 56.9005 27.3742C56.2763 28.0766 55.3501 28.6678 54.1218 29.1428C52.8935 29.6178 51.5796 29.8553 50.1802 29.8553C48.6398 29.8553 47.4316 29.5825 46.5406 29.0317C45.6546 28.4809 45.1965 27.7835 45.1663 26.9346C45.1361 26.0857 45.408 24.8779 45.9718 23.3165L46.4651 21.9521H51.8011L50.8799 24.4888C50.598 25.2721 50.4872 25.7724 50.5577 25.9947C50.6282 26.217 50.8547 26.3282 51.2323 26.3282C51.6098 26.3282 51.9521 26.1867 52.2391 25.9037C52.526 25.6208 52.7727 25.2013 52.974 24.6404C53.417 23.4125 53.5328 22.6091 53.3163 22.2351C53.0898 21.8561 52.4203 21.2245 51.3128 20.3452C50.2104 19.4508 49.4956 18.804 49.1784 18.3997C48.8613 17.9955 48.68 17.4396 48.6347 16.7271C48.5894 16.0146 48.7656 15.1051 49.1683 13.9984C49.7472 12.4016 50.3866 11.2343 51.0863 10.4966C51.786 9.75879 52.6921 9.18273 53.8097 8.76331C54.9272 8.3439 56.1656 8.13672 57.5298 8.13672C59.0198 8.13672 60.2079 8.36411 61.0989 8.8189C61.9849 9.27369 62.4732 9.8447 62.5638 10.537C62.6544 11.2293 62.3976 12.4016 61.7986 14.0591L61.5016 14.8827V14.8878Z" fill="white"/>
<path d="M84.7192 8.58203L74.8627 29.4214H68.4091C68.978 26.2177 69.7784 22.5794 70.8053 18.4913C69.9646 20.2397 68.1624 23.8831 65.3988 29.4214H58.9805L64.2208 8.58203H69.2448L67.1556 15.8536L65.137 22.8826C66.6472 19.2443 68.8521 14.4791 71.7517 8.58203H77.1229C76.9719 9.19347 76.3326 11.4826 75.1949 15.4544L72.8894 23.3828C75.0137 18.3397 77.284 13.4028 79.7003 8.58203H84.7242H84.7192Z" fill="white"/>
<path d="M85.2279 8.58203H94.8075L93.2974 12.7509H89.4615L88.0268 16.7025H91.616L90.1763 20.6693H86.5871L84.9258 25.2525H89.1443L87.6341 29.4214H77.6719L85.2279 8.58203Z" fill="white"/>
<path d="M106.767 8.58203L102.498 29.4214H96.6288L97.6759 25.677H95.622L93.9206 29.4214H87.9805L98.4663 8.58203H106.772H106.767ZM99.015 21.5586C99.4177 19.9113 99.906 18.0214 100.48 15.8889C100.575 15.5302 100.072 15.3381 99.906 15.6717C98.6626 18.1528 97.7111 20.1235 97.0467 21.5687C96.9258 21.8315 97.1171 22.1246 97.4041 22.1246H98.2951C98.6374 22.1246 98.9294 21.8921 99.0099 21.5637L99.015 21.5586Z" fill="white"/>
<path d="M108.506 8.58203L106.996 12.7509H110.393L104.348 29.4214H110.096L116.137 12.7509H120.859L114.813 29.4214H120.562L128.118 8.58203H108.506Z" fill="white"/>
<path d="M130.423 8.58203H140.003L138.493 12.7509H134.657L133.222 16.7025H136.811L135.372 20.6693H131.782L130.121 25.2525H134.34L132.829 29.4214H122.867L130.423 8.58203Z" fill="white"/>
<path d="M32.8014 0H5.05412C2.2628 0 0 2.27144 0 5.0734V32.9266C0 35.7286 2.2628 38 5.05412 38H32.8014C35.5927 38 37.8555 35.7286 37.8555 32.9266V5.0734C37.8555 2.27144 35.5927 0 32.8014 0Z" fill="white"/>
<path d="M26.5434 22.6372C26.4628 22.5917 26.3672 22.5766 26.2766 22.5766C23.5179 22.5917 22.2695 23.0667 19.5965 20.2672C17.7993 18.3824 17.2104 17.7861 15.977 16.4369C15.7606 16.1994 15.4585 16.068 15.1515 16.1489L12.7452 16.8058L10.2484 17.4728C9.7651 17.6042 9.35735 17.9125 9.09558 18.342L4.85194 25.376C4.57004 25.8409 4.90731 26.4321 5.44092 26.4321L24.1119 26.4473C24.6355 26.4473 25.1187 26.1694 25.3855 25.7146L26.0903 24.4917L26.7296 23.4154C26.8907 23.1476 26.8001 22.7989 26.5333 22.6372H26.5434Z" fill="#231916"/>
<path d="M32.3689 11.5724L21.1733 14.569C20.7454 14.6902 20.7806 15.3168 21.2236 15.3825H21.3746C21.3746 15.3825 24.8179 15.7261 26.1318 16.7671H26.1267C27.2342 17.6464 27.7779 18.9956 27.7779 19.9405C27.7779 20.365 28.3366 20.5166 28.5481 20.1477L33.0182 12.4214C33.28 11.9716 32.8672 11.436 32.3689 11.5724Z" fill="#231916"/>
</svg>
