<svg width="22" height="27" viewBox="0 0 22 27" fill="none" xmlns="http://www.w3.org/2000/svg">
<path d="M21.2974 9.20522C21.1406 9.32673 18.3734 10.8848 18.3734 14.3492C18.3734 18.3564 21.8946 19.7741 22 19.8092C21.9838 19.8956 21.4406 21.7507 20.1435 23.6409C18.9869 25.3042 17.7789 26.9649 15.9413 26.9649C14.1037 26.9649 13.6308 25.8983 11.5094 25.8983C9.44208 25.8983 8.70704 27 7.02616 27C5.34529 27 4.17246 25.4608 2.82398 23.5707C1.26201 21.351 0 17.9028 0 14.6301C0 9.38074 3.4158 6.59676 6.77755 6.59676C8.56381 6.59676 10.0528 7.76868 11.1743 7.76868C12.2417 7.76868 13.9064 6.52655 15.9386 6.52655C16.7088 6.52655 19.476 6.59676 21.2974 9.20522ZM14.9738 4.30423C15.8143 3.30783 16.4088 1.92529 16.4088 0.542754C16.4088 0.351035 16.3926 0.156616 16.3575 0C14.9901 0.0513051 13.3632 0.909991 12.3823 2.0468C11.6121 2.92169 10.8933 4.30423 10.8933 5.70567C10.8933 5.91629 10.9284 6.12691 10.9446 6.19442C11.0311 6.21062 11.1716 6.22952 11.3121 6.22952C12.539 6.22952 14.0821 5.40864 14.9738 4.30423Z" fill="black"/>
</svg>
