<svg width="23" height="25" viewBox="0 0 23 25" fill="none" xmlns="http://www.w3.org/2000/svg">
<path d="M10.7766 11.957L0.59375 22.6255C0.70809 23.0308 0.913575 23.4045 1.1945 23.7182C1.47542 24.0318 1.82434 24.2771 2.21459 24.4353C2.60484 24.5934 3.02608 24.6603 3.44611 24.6307C3.86615 24.6011 4.27385 24.4758 4.63806 24.2645L16.0957 17.739L10.7766 11.957Z" fill="#EA4335"/>
<path d="M21.071 10.1425L16.1161 7.30469L10.5391 12.1988L16.1389 17.7228L21.0558 14.9153C21.4914 14.6872 21.8563 14.3442 22.1108 13.9236C22.3654 13.5029 22.5 13.0206 22.5 12.5289C22.5 12.0372 22.3654 11.5549 22.1108 11.1342C21.8563 10.7136 21.4914 10.3706 21.0558 10.1425H21.071Z" fill="#FBBC04"/>
<path d="M0.591084 2.38281C0.529531 2.61036 0.498904 2.84517 0.50003 3.08089V21.9291C0.500646 22.1647 0.531243 22.3992 0.591084 22.6271L11.123 12.2318L0.591084 2.38281Z" fill="#4285F4"/>
<path d="M10.8525 12.5038L16.1184 7.30615L4.676 0.750266C4.24553 0.498153 3.75594 0.364627 3.25708 0.363287C2.65459 0.362093 2.06824 0.557935 1.5874 0.920961C1.10656 1.28399 0.757613 1.79428 0.59375 2.37406L10.8525 12.5038Z" fill="#34A853"/>
</svg>
